# xmcd
#
# Track frame offsets: 
#        150
#        19462
#        31905
#        46762
#        64220
#        86397
#        102660
#        125462
#        153575
#        177505
#        201470
#        221727
#        235922
#
# Disc length: 3280 seconds
#
# Revision: 2
# Processed by: cddbd v1.5.2PL0 Copyright (c) Steve Scherf et al.
# Submitted via: ExactAudioCopyFreeDBPlugin 1.0
#
DISCID=bc0cce0d
DTITLE=Big John Wrencher - Maxwell Street Blues
DYEAR=1993
DGENRE=Blues
TTITLE0=Maxwell Street Alley Blues
TTITLE1=Special Rider Blues
TTITLE2=Back Porch Boogie
TTITLE3=No Good Weasel
TTITLE4=Goin' Upstairs
TTITLE5=Dust My Bed
TTITLE6=Root Man Blues
TTITLE7=Moonshine Blues
TTITLE8=Ha-Ha Baby
TTITLE9=Conductor Blues
TTITLE10=Rockin' Chair Blues
TTITLE11=12th Street Boogie
TTITLE12=Rough - Tough Boogie
EXTD=
EXTT0=
EXTT1=
EXTT2=
EXTT3=
EXTT4=
EXTT5=
EXTT6=
EXTT7=
EXTT8=
EXTT9=
EXTT10=
EXTT11=
EXTT12=
PLAYORDER=
